<?xml version="1.0" encoding="UTF-8"?> <svg xmlns="http://www.w3.org/2000/svg" width="279" height="77" viewBox="0 0 279 77" fill="none"><path d="M0.335938 38.1342V76.2676L24.0693 75.7342C46.0693 75.3342 48.0693 75.0676 54.2026 72.0009C75.1359 61.3342 80.0693 34.1342 64.7359 13.6009C57.6693 4.13424 43.1359 0.000907481 16.7359 0.000907481H0.335938V38.1342ZM39.5359 30.1342C41.2693 31.2009 43.4026 33.6009 44.3359 35.4676C45.9359 38.4009 45.9359 39.3342 44.3359 42.2676C42.0693 46.1342 37.1359 50.0009 32.7359 51.3342C29.6693 52.1342 29.6693 52.0009 29.6693 39.3342V26.4009L33.1359 27.2009C35.0026 27.7342 37.9359 28.9342 39.5359 30.1342Z" fill="black"></path><path d="M33.6719 39.4684C33.6719 46.9351 33.6719 46.9351 36.6052 45.0684C43.0052 40.8018 42.7385 36.8018 36.0719 33.2018C33.9385 32.0018 33.6719 32.5351 33.6719 39.4684Z" fill="black"></path><path d="M76.0719 38L76.4719 76H91.6719H106.872L107.005 38V-3.96371e-06H91.2719H75.6719L76.0719 38Z" fill="black"></path><path d="M110.336 38V76H126.603H143.003L143.803 72.4C144.336 70.4 143.936 66.4 143.003 63.4667C142.069 60.4 141.003 53.2 140.469 47.3333C139.669 37.2 139.536 36.6667 136.336 36.2667C131.403 35.6 130.069 33.6 133.136 31.3333C136.603 28.6667 136.736 28.8 141.536 33.2C145.136 36.5333 145.669 38 145.669 43.7333C145.669 51.2 147.936 54.6667 153.003 54.6667C158.336 54.6667 162.869 57.0667 167.669 62.2667C170.736 65.7333 174.603 68 179.269 69.6C185.136 71.3333 185.669 71.7333 182.336 71.8667C180.203 71.8667 175.936 71.3333 173.003 70.6667C166.869 69.3333 166.469 69.4667 167.669 73.2C168.469 75.7333 169.536 76 180.069 76H191.669V38V-3.96371e-06H176.069H160.469L161.269 14.2667L162.069 28.5333L146.203 14.2667L130.336 -3.96371e-06H120.336H110.336V38Z" fill="black"></path><path d="M227.406 1.33336C214.873 3.8667 204.073 12.8 199.673 24.4C196.606 32.5334 197.406 47.7334 201.406 55.3334C208.073 68.2667 220.206 74.9334 237.006 75.2C260.606 75.3334 275.806 63.7334 278.473 43.2C282.073 15.0667 258.073 -4.66664 227.406 1.33336ZM246.339 28.6667C251.406 33.6 251.006 41.3334 245.539 45.8667C239.139 51.3334 231.406 49.8667 227.673 42.6667C221.539 30.8 237.006 19.2 246.339 28.6667Z" fill="black"></path><path d="M233.4 30.8013C231.8 31.7347 231 33.7347 231 37.2013C231 41.6013 231.533 42.5347 235 44.0013C240.733 46.4013 245.667 43.068 245.667 36.668C245.667 30.268 239.4 27.2013 233.4 30.8013Z" fill="black"></path><path d="M146.202 59.6017C146.735 60.935 147.535 63.6017 147.935 65.4684C148.602 68.6684 148.869 68.935 152.335 67.6017C154.335 66.8017 157.002 66.6684 158.469 67.335C160.869 68.4017 164.335 68.4017 165.402 67.335C165.669 67.0684 165.269 65.735 164.469 64.2684C163.002 61.4683 158.202 59.335 150.469 58.0017C145.802 57.2017 145.402 57.4683 146.202 59.6017Z" fill="black"></path><path d="M152.336 72.5333C152.336 75.0667 153.003 76 155.003 76C156.469 76 158.069 75.0667 158.603 74C159.536 71.4667 159.269 71.3333 155.403 70.1333C152.736 69.3333 152.336 69.6 152.336 72.5333Z" fill="black"></path><path d="M147 74C147 75.0667 147.667 76 148.333 76C149.133 76 149.667 75.0667 149.667 74C149.667 72.9333 149.133 72 148.333 72C147.667 72 147 72.9333 147 74Z" fill="black"></path><path d="M161.672 74C161.672 75.0667 162.339 76 163.005 76C163.805 76 164.339 75.0667 164.339 74C164.339 72.9333 163.805 72 163.005 72C162.339 72 161.672 72.9333 161.672 74Z" fill="black"></path></svg> 